<svg width="81" height="80" xmlns="http://www.w3.org/2000/svg" xmlns:xlink="http://www.w3.org/1999/xlink" overflow="hidden"><defs><clipPath id="clip0"><rect x="-120" y="557" width="81" height="80"/></clipPath></defs><g clip-path="url(#clip0)" transform="translate(120 -557)"><path d="M-93.5033 557.007C-94.077 557.007-94.6574 557.208-95.0776 557.618-95.2844 557.826-99.487 561.516-100.327 566.636-101.168 566.227-102.222 566.227-102.856 566.227L-107.685 566.227C-108.946 566.227-110 567.255-110 568.693-110 570.124-109.787 571.354-109.159 572.792-103.276 571.152-97.1789 571.152-93.3966 571.152-88.1401 571.152-82.6768 571.354-77.6337 572.993-77.2135 571.764-77 570.124-77 568.693-77 567.255-78.054 566.227-79.3147 566.227L-83.9375 566.227C-84.778 566.227-85.832 566.227-86.6725 566.636-87.7198 561.516-91.9224 557.826-91.9224 557.618-92.3426 557.208-92.923 557.007-93.5033 557.007Z" fill="#C00000" fill-rule="evenodd"/><path d="M-107.073 594.51C-105.861 594.51-104.853 595.541-104.853 596.775L-104.853 601.5C-104.853 602.734-105.861 603.765-107.073 603.765-108.286 603.765-109.3 602.734-109.3 601.5L-109.3 596.775C-109.3 595.541-108.286 594.51-107.073 594.51ZM-93.7351 576.007C-101.819 576.007-119 576.007-119 594.51-119 605.821-113.136 620.212-104.853 627-106.066 621.655-106.265 615.278-104.449 608.079-103.237 603.556-101.415 598.622-99.1884 594.307-99.9968 593.688-100.401 593.276-100.401 592.252L-100.401 587.52C-100.401 586.286-99.3937 585.255-98.1812 585.255-96.9686 585.255-95.9549 586.286-95.9549 587.52L-95.9549 588.753C-94.7424 587.109-93.1256 585.464-91.9131 584.021-88.6796 580.53-84.843 578.265-81 577.24-85.0419 576.209-89.289 576.007-93.7351 576.007Z" fill="#C00000" fill-rule="evenodd"/><path d="M-62.001 575C-62.5469 575-63.0991 575.252-63.6006 575.762-64.5972 576.783-65.397 578.204-66 579.425-60.5981 581.867-56.5991 586.143-53.9966 588.785-51.4004 591.233-47.1982 595.71-44.6021 601-43.4023 600.593-42.2026 599.779-41.1997 598.558-40 597.945-40 596.523-41.0029 595.71L-44.2021 592.454C-44.6021 591.84-45.4019 591.433-46.2017 590.826-43.4023 586.55-43.5991 581.053-43.5991 580.852-43.5991 579.632-44.6021 578.818-45.9985 578.611-46.0239 578.611-46.1318 578.611-46.3032 578.611-47.5283 578.611-52.0986 578.766-55.5962 581.259-56.1992 580.445-56.5991 579.832-57.1958 579.225L-60.4014 575.762C-60.8965 575.252-61.4487 575-62.001 575Z" fill="#C00000" fill-rule="evenodd"/><path d="M-74.8808 588.5C-74.3243 588.5-73.7613 588.753-73.2501 589.267-72.2342 590.287-72.2342 591.522-73.2501 592.75L-76.5114 596.026C-77.0226 596.533-77.6373 596.793-78.2197 596.793-78.8085 596.793-79.365 596.533-79.7727 596.026-80.7951 594.999-80.7951 593.771-79.7727 592.75L-76.5114 589.267C-76.0067 588.753-75.4437 588.5-74.8808 588.5ZM-68.1576 601.811C-67.5946 601.811-67.0316 602.064-66.5269 602.578-65.5045 603.598-65.5045 604.827-66.5269 606.055L-69.7882 609.331C-70.2929 609.844-70.9077 610.104-71.5224 610.104-72.1307 610.104-72.7454 609.844-73.2501 609.331-74.2725 608.311-74.2725 606.673-73.2501 606.055L-69.7882 602.578C-69.277 602.064-68.7141 601.811-68.1576 601.811ZM-84.697 605.288C-84.1082 605.288-83.5452 605.548-83.0405 606.055-82.0181 606.673-82.0181 608.311-83.0405 609.331L-86.5024 612.613C-87.0136 613.12-87.5765 613.38-88.133 613.38-88.696 613.38-89.2525 613.12-89.7637 612.613-90.786 611.586-90.786 610.358-89.7637 609.331L-86.5024 606.055C-85.8941 605.548-85.2794 605.288-84.697 605.288ZM-55.3647 608.564C-54.75 608.564-54.1935 608.824-53.8829 609.331-52.6599 610.358-52.6599 611.586-53.8829 612.613L-57.1442 615.889C-57.6554 616.396-58.2184 616.656-58.7749 616.656-59.3378 616.656-59.9008 616.396-60.412 615.889-61.4279 614.862-61.4279 613.634-60.412 612.613L-57.1442 609.331C-56.6395 608.824-55.973 608.564-55.3647 608.564ZM-67.1352 613.686C-66.5787 613.686-66.0157 613.939-65.5045 614.453-64.4886 615.48-64.4886 616.708-65.5045 617.729L-68.7658 621.004C-69.277 621.518-69.8853 621.771-70.5 621.771-71.1147 621.771-71.723 621.518-72.2342 621.004-73.2501 619.984-73.2501 618.755-72.2342 617.729L-68.7658 614.453C-68.2546 613.939-67.6981 613.686-67.1352 613.686ZM-84.697 618.19C-84.1082 618.19-83.5452 618.443-83.0405 618.957-82.0181 619.984-82.0181 621.414-83.0405 622.441L-86.5024 625.717C-87.0136 626.23-87.5765 626.484-88.133 626.484-88.696 626.484-89.2525 626.23-89.7637 625.717-90.786 624.69-90.786 623.461-89.7637 622.441L-86.5024 618.957C-85.8941 618.443-85.2794 618.19-84.697 618.19ZM-75.6961 582.006C-79.5592 582.006-83.7005 583.586-87.9324 587.83-93.232 593.16-97.7163 601.349-99.7546 609.74-102 619.574-100.771 627.556-96.0857 632.06-92.5138 635.655-87.7383 636.994-82.7687 636.994-79.8051 636.994-76.7638 636.513-73.8648 635.752-65.7116 633.705-57.3513 628.992-52.0517 623.871-39 610.767-51.2363 598.483-56.9436 592.75-60.8002 588.87-67.6399 582.006-75.6961 582.006Z" fill="#C00000" fill-rule="evenodd"/></g></svg>